<svg xmlns="http://www.w3.org/2000/svg" viewBox="0 0 64 64" role="img" aria-label="صيدليات دواء">
  <defs>
    <linearGradient id="dark" x1="0" y1="0" x2="1" y2="1">
      <stop offset="0" stop-color="#15354a"/>
      <stop offset="1" stop-color="#071827"/>
    </linearGradient>
    <linearGradient id="mint" x1="0" y1="0" x2="1" y2="1">
      <stop offset="0" stop-color="#6fe6d5"/>
      <stop offset="1" stop-color="#0aa895"/>
    </linearGradient>
    <linearGradient id="blue" x1="0" y1="0" x2="1" y2="1">
      <stop offset="0" stop-color="#167890"/>
      <stop offset="1" stop-color="#07364e"/>
    </linearGradient>
  </defs>
  <rect width="64" height="64" rx="15" fill="#fff"/>
  <path d="M18 48c-4 0-7-3-7-7V29c0-4 3-7 7-7h10V13c0-5 4-9 9-9 4 0 7 2 9 6l7 16c1 2 1 4 1 6v9c0 4-3 7-7 7H18Z" fill="url(#dark)"/>
  <path d="M33 12c0-2 2-4 4-4 2 0 4 1 5 3l6 14H33V12Z" fill="url(#mint)"/>
  <path d="M18 28h12v14H18c-1 0-2-1-2-2V30c0-1 1-2 2-2Z" fill="url(#blue)"/>
  <path d="M34 29h14v11c0 1-1 2-2 2H34V29Z" fill="url(#mint)"/>
  <path d="M30 8v37M14 25h37" stroke="#071827" stroke-width="4" stroke-linecap="round"/>
</svg>